<svg xmlns="http://www.w3.org/2000/svg" width="1024" height="1024" viewBox="0 0 1024 1024">
  <defs>
    <linearGradient id="bg" x1="0%" y1="0%" x2="100%" y2="100%">
      <stop offset="0%" style="stop-color:#1a1a1a"/>
      <stop offset="100%" style="stop-color:#0a0a0a"/>
    </linearGradient>
    <linearGradient id="accent" x1="0%" y1="0%" x2="100%" y2="100%">
      <stop offset="0%" style="stop-color:#ff3b3b"/>
      <stop offset="100%" style="stop-color:#e30613"/>
    </linearGradient>
  </defs>

  <!-- Background - full canvas, macOS applies rounding -->
  <rect x="0" y="0" width="1024" height="1024" fill="url(#bg)"/>

  <!-- Border highlight -->
  <rect x="0" y="0" width="1024" height="1024" fill="none" stroke="rgba(255,255,255,0.1)" stroke-width="3"/>

  <!-- S letter - centered and scaled -->
  <path d="M 620 235 C 430 235 360 305 360 395 C 360 485 450 520 540 540 C 630 560 720 595 720 685 C 720 775 650 845 430 845 L 430 765 C 575 765 610 730 610 685 C 610 635 540 608 470 582 C 380 545 260 490 260 380 C 260 270 365 180 620 180 Z" fill="url(#accent)"/>
</svg>
